<svg width="161" height="20" viewBox="0 0 161 20" fill="none" xmlns="http://www.w3.org/2000/svg">
<g id="Group 173">
<g id="Group 87">
<path id="Vector" d="M151 20C156.523 20 161 15.5228 161 10C161 4.47715 156.523 0 151 0C145.477 0 141 4.47715 141 10C141 15.5228 145.477 20 151 20Z" fill="#273B7A"/>
<path id="Vector_2" d="M160.775 12.1156L154.661 6.00134L149.563 6.40822L146.959 8.78517L147.294 13.9558L153.083 19.7818C156.923 18.9681 159.949 15.9509 160.775 12.1156Z" fill="#121149"/>
<path id="Vector_3" d="M151.218 9.08051V10.9967H154.215C153.79 12.3684 152.512 13.3648 151 13.3648C149.142 13.3648 147.635 11.8582 147.635 9.99961C147.635 8.14117 149.142 6.63449 151 6.63449C151.869 6.63449 152.658 6.96641 153.255 7.5066L154.661 6.00121C153.696 5.11766 152.411 4.57812 151 4.57812C148.006 4.57812 145.579 7.00539 145.579 9.99969C145.579 12.994 148.006 15.4212 151 15.4212C153.994 15.4212 156.422 12.9939 156.422 9.99969C156.422 9.68602 156.393 9.37941 156.341 9.08051H151.218Z" fill="#4285F4"/>
<path id="Vector_4" d="M151 6.63457C151.869 6.63457 152.658 6.96648 153.255 7.50668L154.661 6.00129C153.696 5.11766 152.411 4.57812 151 4.57812C148.924 4.57812 147.121 5.74594 146.21 7.46008L147.864 8.78512C148.352 7.52769 149.57 6.63457 151 6.63457Z" fill="#EA4335"/>
<path id="Vector_5" d="M147.635 10.0005C147.635 9.57168 147.718 9.16313 147.865 8.78598L146.21 7.46094C145.808 8.21863 145.579 9.0827 145.579 10.0005C145.579 10.9226 145.81 11.7906 146.216 12.5508L147.86 11.203C147.717 10.829 147.635 10.4248 147.635 10.0005Z" fill="#FBBC05"/>
<path id="Vector_6" d="M152.871 12.7955C152.336 13.1546 151.694 13.3659 151.001 13.3659C149.566 13.3659 148.345 12.467 147.861 11.2031L146.216 12.5509C147.128 14.2593 148.928 15.4223 151 15.4223C152.346 15.4223 153.576 14.9309 154.524 14.1192L152.871 12.7955Z" fill="#34A853"/>
<path id="Vector_7" d="M156.422 9.99987C156.422 9.6862 156.393 9.37959 156.341 9.08069H151.218V10.9969H154.215C153.985 11.7397 153.503 12.3706 152.871 12.7947L154.524 14.1184C155.685 13.124 156.422 11.6484 156.422 9.99987Z" fill="#4285F4"/>
</g>
<g id="Group 88">
<path id="Vector_8" d="M66.6576 3.57713C66.4756 1.87157 65.1285 0.524271 63.4227 0.342394C59.1451 -0.114131 54.8549 -0.114131 50.5774 0.342394C48.8716 0.524424 47.5244 1.87157 47.3424 3.57713C46.8859 7.85445 46.8859 12.1446 47.3424 16.4219C47.5244 18.1276 48.8716 19.4748 50.5773 19.6568C54.8548 20.1133 59.1451 20.1133 63.4227 19.6568C65.1285 19.4748 66.4756 18.1276 66.6576 16.4219C67.1141 12.1446 67.1141 7.85461 66.6576 3.57713Z" fill="url(#paint0_radial_0_158)"/>
<path id="Vector_9" d="M65.5699 4.30058C65.4085 2.78712 64.2131 1.59164 62.6994 1.43006C58.9037 1.0251 55.0966 1.0251 51.3008 1.43006C49.7873 1.59164 48.5918 2.78712 48.4302 4.30058C48.0252 8.0962 48.0252 11.9031 48.4302 15.6986C48.5918 17.2122 49.7873 18.4077 51.3008 18.5691C55.0966 18.9742 58.9037 18.9742 62.6993 18.5691C64.213 18.4077 65.4085 17.2122 65.5699 15.6986C65.9751 11.9031 65.9751 8.0962 65.5699 4.30058Z" fill="url(#paint1_linear_0_158)"/>
<path id="Vector_10" d="M47.2993 16.0065C47.313 16.1447 47.3272 16.2829 47.342 16.4212C47.5241 18.1267 48.8713 19.4739 50.5771 19.6559C54.8546 20.1124 59.1449 20.1124 63.4224 19.6559C65.1281 19.4739 66.4752 18.1267 66.6572 16.4212C66.672 16.2829 66.6862 16.1447 66.7001 16.0065H47.2993Z" fill="url(#paint2_linear_0_158)"/>
<path id="Vector_11" d="M66.6575 16.4227C66.9029 14.1244 67.0161 11.8224 66.9978 9.52071L62.4262 4.94936C61.8551 4.29738 61.0209 3.89044 60.0407 3.85519C58.0248 3.78257 56.0026 3.78623 53.9865 3.8555C52.312 3.91318 51.141 5.03862 50.8407 6.69276C50.7878 6.9848 50.756 7.28066 50.7144 7.57483V12.4242C50.7374 12.5813 50.7713 12.7377 50.7818 12.8958C50.8489 13.9019 51.2625 14.7637 51.9245 15.3467L56.5766 19.9985C58.8597 20.0145 61.1428 19.901 63.4226 19.6576C65.1284 19.4756 66.4755 18.1285 66.6575 16.4227Z" fill="url(#paint3_linear_0_158)"/>
<path id="Vector_12" d="M66.6574 16.4211C66.4756 18.1265 65.1281 19.4739 63.4226 19.6558C61.1431 19.899 58.8594 20.0127 56.5767 19.9967L51.9316 15.3518C52.4701 15.8231 53.172 16.1101 53.9865 16.1408C56.0022 16.2164 58.0249 16.2145 60.0406 16.1418C61.8637 16.0759 63.183 14.7266 63.2399 12.9036C63.3007 10.9679 63.3007 9.02724 63.2399 7.09159C63.214 6.25056 62.9187 5.51054 62.4292 4.95056L66.9979 9.51901C67.0159 11.8204 66.9026 14.1227 66.6574 16.4211Z" fill="url(#paint4_linear_0_158)"/>
<path id="Vector_13" d="M59.3602 7.83458C58.7746 7.19694 57.9343 6.79688 57.0003 6.79688C55.2312 6.79688 53.7969 8.23114 53.7969 10.0002C53.7969 10.9341 54.197 11.7744 54.8346 12.36L62.2463 19.7714C62.6386 19.7372 63.0309 19.6992 63.4229 19.6574C65.1287 19.4754 66.4759 18.1282 66.6579 16.4225C66.6997 16.0305 66.7377 15.6382 66.7719 15.2459L59.3602 7.83458Z" fill="url(#paint5_linear_0_158)"/>
<path id="Vector_14" d="M66.9613 12.1538L60.9964 6.18926C60.8572 6.00662 60.6379 5.88806 60.3906 5.88806C59.9698 5.88806 59.6284 6.22923 59.6284 6.65021C59.6284 6.89754 59.747 7.1168 59.9296 7.25596L66.8547 14.1809C66.9017 13.5054 66.9372 12.8296 66.9613 12.1538Z" fill="url(#paint6_linear_0_158)"/>
<path id="Vector_15" d="M50.7144 7.57483C50.756 7.28066 50.7878 6.9848 50.8407 6.69276C51.1408 5.03862 52.312 3.91318 53.9865 3.8555C56.0026 3.78623 58.0248 3.78257 60.0407 3.85519C61.8632 3.9208 63.1831 5.27024 63.24 7.09329C63.3006 9.02909 63.3006 10.9696 63.24 12.9054C63.1831 14.7285 61.8636 16.0778 60.0408 16.1435C58.025 16.2163 56.0023 16.2181 53.9866 16.1425C52.1638 16.0739 50.9037 14.7215 50.7818 12.8957C50.7713 12.7377 50.7374 12.5812 50.7144 12.424C50.7144 10.8076 50.7144 9.19113 50.7144 7.57483ZM57.0016 15.0631C57.9241 15.0631 58.8476 15.0907 59.7689 15.0567C61.2135 15.0031 62.102 14.141 62.1357 12.6979C62.1775 10.8997 62.1775 9.09913 62.1357 7.3008C62.102 5.85798 61.2129 4.97576 59.7689 4.94509C57.9362 4.90633 56.1015 4.90664 54.2687 4.94509C52.8358 4.97515 51.9447 5.83952 51.9058 7.26647C51.8563 9.08738 51.8563 10.9115 51.9058 12.7324C51.9447 14.1592 52.8358 15.0036 54.2689 15.0567C55.1786 15.0906 56.0906 15.0631 57.0016 15.0631Z" fill="url(#paint7_linear_0_158)"/>
<g id="Group">
<path id="Vector_16" d="M50.7144 7.57483C50.756 7.28066 50.7878 6.9848 50.8407 6.69276C51.1408 5.03862 52.312 3.91318 53.9865 3.8555C56.0026 3.78623 58.0248 3.78257 60.0407 3.85519C61.8632 3.9208 63.1831 5.27024 63.24 7.09329C63.3006 9.02909 63.3006 10.9696 63.24 12.9054C63.1831 14.7285 61.8636 16.0778 60.0408 16.1435C58.025 16.2163 56.0023 16.2181 53.9866 16.1425C52.1638 16.0739 50.9037 14.7215 50.7818 12.8957C50.7713 12.7377 50.7374 12.5812 50.7144 12.424C50.7144 10.8076 50.7144 9.19113 50.7144 7.57483ZM57.0016 15.0631C57.9241 15.0631 58.8476 15.0907 59.7689 15.0567C61.2135 15.0031 62.102 14.141 62.1357 12.6979C62.1775 10.8997 62.1775 9.09913 62.1357 7.3008C62.102 5.85798 61.2129 4.97576 59.7689 4.94509C57.9362 4.90633 56.1015 4.90664 54.2687 4.94509C52.8358 4.97515 51.9447 5.83952 51.9058 7.26647C51.8563 9.08738 51.8563 10.9115 51.9058 12.7324C51.9447 14.1592 52.8358 15.0036 54.2689 15.0567C55.1786 15.0906 56.0906 15.0631 57.0016 15.0631Z" fill="white"/>
<path id="Vector_17" d="M57.0003 6.79626C55.2312 6.79626 53.7969 8.23038 53.7969 9.99941C53.7969 11.7686 55.2312 13.2027 57.0003 13.2027C58.7696 13.2027 60.2037 11.7686 60.2037 9.99941C60.2037 8.23038 58.7696 6.79626 57.0003 6.79626ZM57.0003 12.0999C55.8402 12.0999 54.8998 11.1595 54.8998 9.99941C54.8998 8.83933 55.8402 7.89897 57.0003 7.89897C58.1604 7.89897 59.1008 8.83933 59.1008 9.99941C59.1008 11.1595 58.1604 12.0999 57.0003 12.0999Z" fill="white"/>
<path id="Vector_18" d="M61.1526 6.6496C61.1526 7.07042 60.8114 7.41159 60.3906 7.41159C59.9698 7.41159 59.6284 7.07042 59.6284 6.6496C59.6284 6.22862 59.9698 5.88745 60.3906 5.88745C60.8114 5.88745 61.1526 6.22862 61.1526 6.6496Z" fill="white"/>
</g>
</g>
<g id="Group 172">
<path id="Vector_19" d="M17.5 0H2.5C1.12083 0 0 1.12083 0 2.5V17.5C0 18.8783 1.12083 20 2.5 20H17.5C18.8783 20 20 18.8783 20 17.5V2.5C20 1.12083 18.8783 0 17.5 0Z" fill="#3B5999"/>
<path id="Vector_20" d="M13.75 10V7.5C13.75 6.81 14.31 6.875 15 6.875H16.25V3.75H13.75C11.6783 3.75 10 5.42833 10 7.5V10H7.5V13.125H10V20H13.75V13.125H15.625L16.875 10H13.75Z" fill="white"/>
</g>
<g id="Group 171">
<path id="Vector_21" d="M110.423 19.6576C106.145 20.1141 101.855 20.1141 97.5773 19.6576C95.8716 19.4756 94.5244 18.1284 94.3424 16.4226C93.8859 12.1451 93.8859 7.85477 94.3424 3.57727C94.5244 1.87164 95.8716 0.524445 97.5773 0.342407C101.855 -0.114136 106.145 -0.114136 110.423 0.342407C112.128 0.524445 113.476 1.87164 113.658 3.57727C114.114 7.85477 114.114 12.1451 113.658 16.4226C113.476 18.1284 112.129 19.4756 110.423 19.6576Z" fill="url(#paint8_linear_0_158)"/>
<path id="Vector_22" d="M112.57 4.3007C112.408 2.78719 111.213 1.59166 109.699 1.43007C105.904 1.0251 102.097 1.0251 98.3008 1.43007C96.7873 1.59166 95.5918 2.78719 95.4302 4.3007C95.0252 8.09648 95.0252 11.9035 95.4302 15.6992C95.5918 17.2128 96.7873 18.4084 98.3008 18.5698C102.097 18.9749 105.904 18.9749 109.699 18.5698C111.213 18.4084 112.408 17.2128 112.57 15.6992C112.975 11.9035 112.975 8.09648 112.57 4.3007Z" fill="url(#paint9_linear_0_158)"/>
<path id="Vector_23" d="M94.2998 16.0081C94.3135 16.1463 94.3277 16.2845 94.3425 16.4228C94.5246 18.1284 95.8718 19.4756 97.5775 19.6577C101.855 20.1142 106.145 20.1142 110.423 19.6577C112.129 19.4756 113.476 18.1284 113.658 16.4228C113.673 16.2845 113.687 16.1463 113.701 16.0081H94.2998Z" fill="url(#paint10_linear_0_158)"/>
<path id="Vector_24" d="M113.996 9.29712L109.844 5.14581C109.379 5.41177 108.969 5.55933 108.66 5.64111C108.487 5.68765 108.345 5.71298 108.243 5.72687C107.775 5.24698 107.121 4.94897 106.398 4.94897C104.974 4.94897 103.82 6.10315 103.82 7.5271C103.82 7.57852 103.821 7.62933 103.824 7.67999C103.831 7.80344 103.847 7.92474 103.871 8.04269C103.277 8.03384 101.345 7.87515 99.5028 6.29587C99.5027 6.29587 99.5027 6.29572 99.5027 6.29572H99.5025L98.6337 5.42673C98.6337 5.42673 97.6144 7.20575 99.1129 8.55569C99.1787 8.62909 99.251 8.70157 99.3302 8.77283C99.3365 8.77985 99.343 8.78671 99.3493 8.79373C99.1526 8.78046 98.561 8.72156 98.2186 8.47971C98.2186 8.47971 98.1498 9.56705 99.0557 10.3675L99.7872 11.1053C99.5645 11.1237 99.318 11.1193 99.1467 11.0443C99.1467 11.0443 99.2983 11.6883 99.8846 12.2038L100.909 13.2339C100.295 13.592 99.2184 14.0402 97.8018 13.9257L104.018 19.9999C106.154 19.9993 108.29 19.8852 110.423 19.6575C112.129 19.4755 113.476 18.1283 113.658 16.4227C113.911 14.0499 114.024 11.6732 113.996 9.29712Z" fill="url(#paint11_linear_0_158)"/>
<path id="Vector_25" d="M110.198 6.14709C109.756 6.37857 109.089 6.48553 108.868 6.51636C108.867 6.50568 108.865 6.49545 108.863 6.48523C109.614 6.0206 109.844 5.14581 109.844 5.14581C109.379 5.41177 108.969 5.55933 108.66 5.64111C108.486 5.68765 108.345 5.71283 108.243 5.72687C107.775 5.24683 107.121 4.94897 106.397 4.94897C104.974 4.94897 103.819 6.103 103.819 7.5271C103.819 7.57837 103.821 7.62933 103.824 7.67984C103.831 7.80328 103.847 7.92459 103.871 8.04254C103.182 8.03232 100.694 7.82098 98.6333 5.42673C98.6333 5.42673 97.4856 7.42929 99.4152 8.79724C99.4152 8.79724 98.6333 8.77283 98.2183 8.47971C98.2183 8.47971 98.0962 10.4093 100.319 11.0197C100.319 11.0197 99.5373 11.2153 99.1462 11.0443C99.1462 11.0443 99.5371 12.705 101.491 12.8274C101.491 12.8274 100.09 14.1104 97.8013 13.9257C98.9268 14.6383 100.261 15.0508 101.692 15.0508C105.714 15.0508 108.976 11.7898 108.976 7.76712C108.976 7.71692 108.975 7.66672 108.974 7.61652C108.975 7.58676 108.976 7.55716 108.976 7.5271C108.976 7.5062 108.975 7.48529 108.975 7.46439C109.719 6.96878 110.198 6.14709 110.198 6.14709Z" fill="white"/>
</g>
</g>
<defs>
<radialGradient id="paint0_radial_0_158" cx="0" cy="0" r="1" gradientUnits="userSpaceOnUse" gradientTransform="translate(51.0999 17.4777) scale(22.0565 22.0556)">
<stop stop-color="#FAE100"/>
<stop offset="0.0544" stop-color="#FADC04"/>
<stop offset="0.1167" stop-color="#FBCE0E"/>
<stop offset="0.1829" stop-color="#FCB720"/>
<stop offset="0.2514" stop-color="#FE9838"/>
<stop offset="0.3054" stop-color="#FF7950"/>
<stop offset="0.4922" stop-color="#FF1C74"/>
<stop offset="1" stop-color="#6C1CD1"/>
</radialGradient>
<linearGradient id="paint1_linear_0_158" x1="54.6709" y1="8.68954" x2="20.7892" y2="-10.3697" gradientUnits="userSpaceOnUse">
<stop stop-color="#A1B5D8" stop-opacity="0"/>
<stop offset="0.3094" stop-color="#90A2BD" stop-opacity="0.309804"/>
<stop offset="0.7554" stop-color="#7C8B9C" stop-opacity="0.756863"/>
<stop offset="1" stop-color="#748290"/>
</linearGradient>
<linearGradient id="paint2_linear_0_158" x1="56.9996" y1="17.6533" x2="56.9996" y2="20.7707" gradientUnits="userSpaceOnUse">
<stop stop-color="#FAE100" stop-opacity="0"/>
<stop offset="0.3068" stop-color="#FCA800" stop-opacity="0.305882"/>
<stop offset="0.6275" stop-color="#FE7300" stop-opacity="0.627451"/>
<stop offset="0.8685" stop-color="#FF5200" stop-opacity="0.866667"/>
<stop offset="1" stop-color="#FF4500"/>
</linearGradient>
<linearGradient id="paint3_linear_0_158" x1="55.8621" y1="8.83438" x2="50.9126" y2="3.8847" gradientUnits="userSpaceOnUse">
<stop stop-color="#833AB4" stop-opacity="0"/>
<stop offset="1" stop-color="#833AB4"/>
</linearGradient>
<linearGradient id="paint4_linear_0_158" x1="60.7069" y1="18.2907" x2="58.2366" y2="6.64467" gradientUnits="userSpaceOnUse">
<stop stop-color="#833AB4" stop-opacity="0"/>
<stop offset="1" stop-color="#833AB4"/>
</linearGradient>
<linearGradient id="paint5_linear_0_158" x1="61.6474" y1="14.6471" x2="51.725" y2="4.72424" gradientUnits="userSpaceOnUse">
<stop stop-color="#833AB4" stop-opacity="0"/>
<stop offset="1" stop-color="#833AB4"/>
</linearGradient>
<linearGradient id="paint6_linear_0_158" x1="62.3832" y1="8.64267" x2="59.102" y2="5.36139" gradientUnits="userSpaceOnUse">
<stop stop-color="#833AB4" stop-opacity="0"/>
<stop offset="1" stop-color="#833AB4"/>
</linearGradient>
<linearGradient id="paint7_linear_0_158" x1="60.9709" y1="6.05721" x2="52.8808" y2="14.1477" gradientUnits="userSpaceOnUse">
<stop stop-color="#833AB4"/>
<stop offset="0.0922" stop-color="#9C3495"/>
<stop offset="0.2927" stop-color="#DC2546"/>
<stop offset="0.392" stop-color="#FD1D1D"/>
<stop offset="0.5589" stop-color="#FC6831"/>
<stop offset="0.6887" stop-color="#FC9B40"/>
<stop offset="0.7521" stop-color="#FCAF45"/>
<stop offset="0.7806" stop-color="#FDB750"/>
<stop offset="0.8656" stop-color="#FECB6A"/>
<stop offset="0.9415" stop-color="#FFD87A"/>
<stop offset="1" stop-color="#FFDC80"/>
</linearGradient>
<linearGradient id="paint8_linear_0_158" x1="100.64" y1="2.81196" x2="105.699" y2="13.635" gradientUnits="userSpaceOnUse">
<stop stop-color="#00C3FF"/>
<stop offset="1" stop-color="#00B0ED"/>
</linearGradient>
<linearGradient id="paint9_linear_0_158" x1="108.23" y1="12.269" x2="79.1725" y2="-3.31843" gradientUnits="userSpaceOnUse">
<stop stop-color="#00B0ED" stop-opacity="0"/>
<stop offset="1" stop-color="#00A2CE"/>
</linearGradient>
<linearGradient id="paint10_linear_0_158" x1="104" y1="17.0853" x2="104" y2="19.706" gradientUnits="userSpaceOnUse">
<stop stop-color="#00B0ED" stop-opacity="0"/>
<stop offset="1" stop-color="#00A2CE"/>
</linearGradient>
<linearGradient id="paint11_linear_0_158" x1="113.118" y1="18.8309" x2="103.348" y2="9.06029" gradientUnits="userSpaceOnUse">
<stop stop-color="#00B0ED" stop-opacity="0"/>
<stop offset="1" stop-color="#00A2CE"/>
</linearGradient>
</defs>
</svg>
